<svg version="1" xmlns="http://www.w3.org/2000/svg" width="668" height="668" viewBox="0 0 501.000000 501.000000"><path d="M245.5 28.9c-2.8 1.5-18.3 10.4-34.5 19.8s-31.1 18-33 19c-1.9 1.1-5.8 3.4-8.6 5-2.7 1.7-7 4.2-9.5 5.5-6.8 4-21.8 12.5-40.4 23.3-9.3 5.4-24.4 14.1-33.5 19.3-9.1 5.2-21.9 12.6-28.5 16.5-6.6 3.8-14.5 8.3-17.5 10-3 1.6-6.2 3.6-7 4.4-1.3 1.2-1.5 16.7-1.5 126.9 0 110.4.2 125.7 1.5 126.8 1.5 1.3 48.9 28.9 60 34.9 3 1.6 6.2 3.6 7.1 4.3.8.8 1.8 1.4 2.1 1.4.3 0 5.7 3 11.9 6.6 6.3 3.7 13.4 7.8 15.9 9.2 2.5 1.3 7 3.9 10 5.7 13.3 7.8 14.8 8.5 16.1 6.9.6-.8 1.5-1.4 2-1.4.6 0 56.3-31.8 75.9-43.4 3-1.8 8-4.7 11-6.3l5.5-3.1 6.5 3.9c3.6 2.1 7.2 4.2 8 4.6.8.3 12.2 6.9 25.3 14.5 13.1 7.6 24.3 13.8 24.8 13.8s.9.4.9.8 1.2 1.3 2.8 2c1.5.6 4.5 2.3 6.7 3.7 2.2 1.4 4.7 2.8 5.5 3.2.8.4 4.7 2.6 8.5 4.9l7.1 4.1 7.4-4.3c4.1-2.4 11.1-6.4 15.5-8.9s8.7-5 9.5-5.5c.8-.5 21.1-12.3 45-26 23.9-13.8 43.8-25.4 44.3-25.9.6-.6.9-82 .7-231.8v-21.2l-5.7-3.3c-3.2-1.8-7.1-4.1-8.8-5-1.6-1-5.2-3-7.9-4.5-2.7-1.6-5.6-3.3-6.5-3.8-1.7-1-15-8.7-21.1-12.3-1.9-1.1-11.3-6.5-20.9-12l-17.4-10-4.6 2.8c-9.6 5.8-36.3 21-36.9 21-.4 0-.7-10.8-.7-24.1V76.8l-4-2.2c-2.2-1.1-6.7-3.7-10-5.7s-8-4.8-10.5-6.1c-2.5-1.4-17.5-10.1-33.5-19.3-15.9-9.2-29.2-16.9-29.5-17-.3-.2-2.8.9-5.5 2.4z"/></svg>